<?xml version="1.0" encoding="iso-8859-1"?>
<!-- Generator: Adobe Illustrator 19.0.0, SVG Export Plug-In . SVG Version: 6.00 Build 0)  -->
<svg version="1.1" id="Layer_1" xmlns="http://www.w3.org/2000/svg" xmlns:xlink="http://www.w3.org/1999/xlink" x="0px" y="0px"
	 viewBox="0 0 512 512" style="enable-background:new 0 0 512 512;" xml:space="preserve">
<g>
	<g>
		<g>
			<path d="M475.89,111.902H364.783V51.944c0-15.486-12.6-28.086-28.086-28.086H175.302c-15.486,0-28.086,12.6-28.086,28.086V111.9
				H36.11C16.2,111.9,0,128.098,0,148.01c0,14.144,0,287.169,0,304.021c0,19.912,16.2,36.11,36.11,36.11h439.78
				c19.91,0,36.11-16.198,36.11-36.11c0-14.144,0-287.17,0-304.021C512,128.1,495.802,111.902,475.89,111.902z M171.289,51.944
				c0-2.212,1.799-4.012,4.012-4.012h161.395c2.213,0,4.012,1.801,4.012,4.012V111.9h-13.425V73.394
				c0-6.648-5.388-12.037-12.037-12.037H196.751c-6.649,0-12.037,5.389-12.037,12.037V111.9h-13.425V51.944z M303.212,85.43v26.47
				h-94.423V85.43H303.212z M24.073,252.024h114.022c-11.985,29.437-12.873,64.376,0,95.997H24.073V252.024z M487.927,452.031
				c0,6.638-5.399,12.037-12.037,12.037H36.11c-6.638,0-12.037-5.399-12.037-12.037v-79.938h127.09
				c50.784,73.641,158.969,73.524,209.672,0h127.09V452.031z M152.79,300.022c0-56.913,46.305-103.211,103.211-103.211
				c56.926,0,103.211,46.313,103.211,103.211c-0.002,56.911-46.303,103.211-103.211,103.211
				C199.081,403.233,152.79,356.923,152.79,300.022z M487.927,348.021H373.905c12.425-30.522,12.44-65.446,0-95.997h114.022V348.021
				z M487.927,227.95h-127.09c-50.784-73.641-158.969-73.524-209.672,0H24.073v-79.938c0-6.638,5.399-12.037,12.037-12.037
				c15.295,0,421.267,0,439.78,0c6.638,0,12.037,5.399,12.037,12.037V227.95z"/>
			<path d="M190.296,326.051h32.128c4.166,0,7.545,3.378,7.545,7.545v32.128c0,4.166,3.378,7.545,7.545,7.545h36.972
				c4.166,0,7.545-3.377,7.545-7.545v-32.128c0-4.166,3.378-7.545,7.545-7.545h32.128c4.166,0,7.545-3.378,7.545-7.545v-36.972
				c0-4.166-3.378-7.545-7.545-7.545h-32.128c-4.166,0-7.545-3.378-7.545-7.545v-32.128c0-4.166-3.378-7.545-7.545-7.545h-36.972
				c-4.166,0-7.545,3.378-7.545,7.545v32.128c0,4.166-3.378,7.545-7.545,7.545h-32.128c-4.166,0-7.545,3.378-7.545,7.545v36.972
				C182.752,322.673,186.13,326.051,190.296,326.051z"/>
		</g>
	</g>
</g>
<g>
</g>
<g>
</g>
<g>
</g>
<g>
</g>
<g>
</g>
<g>
</g>
<g>
</g>
<g>
</g>
<g>
</g>
<g>
</g>
<g>
</g>
<g>
</g>
<g>
</g>
<g>
</g>
<g>
</g>
</svg>
