<?xml version="1.0" encoding="iso-8859-1"?>
<!-- Generator: Adobe Illustrator 19.0.0, SVG Export Plug-In . SVG Version: 6.00 Build 0)  -->
<svg version="1.1" id="Layer_1" xmlns="http://www.w3.org/2000/svg" xmlns:xlink="http://www.w3.org/1999/xlink" x="0px" y="0px"
	 viewBox="0 0 512.001 512.001" style="enable-background:new 0 0 512.001 512.001;" xml:space="preserve">
<g>
	<g>
		<path d="M209.687,445.961l-36.598-132.286v-64.706c0-4.454-1.77-8.725-4.919-11.874l-17.893-17.894l17.551-17.55
			c3.149-3.149,4.919-7.42,4.919-11.875c0-4.454-1.77-8.725-4.919-11.874l-17.551-17.551l17.551-17.551
			c3.149-3.149,4.919-7.42,4.919-11.874c0-4.455-1.77-8.725-4.919-11.874l-17.551-17.551l17.893-17.894
			c3.149-3.149,4.919-7.42,4.919-11.874V25.225c0-6.402-3.639-12.246-9.384-15.07c-5.744-2.825-12.595-2.138-17.664,1.771
			L44.803,89.99c-4.123,3.18-6.538,8.092-6.538,13.299v210.386l-36.6,132.286c-7.995,28.898,13.809,57.608,43.835,57.608h120.353
			C195.837,503.569,217.693,474.9,209.687,445.961z M71.851,111.546l67.652-52.165v5.391l-24.85,24.85
			c-3.149,3.149-4.919,7.42-4.919,11.874c0,4.455,1.77,8.725,4.919,11.874l17.551,17.551l-17.551,17.551
			c-6.558,6.558-6.558,17.191,0,23.749l17.551,17.551l-17.551,17.55c-3.149,3.149-4.919,7.42-4.919,11.875
			c0,4.454,1.77,8.725,4.919,11.874l24.85,24.85v43.238H71.851V111.546z M165.853,469.982H45.5c-7.84,0-13.558-7.498-11.464-15.066
			l33.8-122.168h75.682l33.798,122.168C179.408,462.474,173.706,469.982,165.853,469.982z"/>
	</g>
</g>
<g>
	<g>
		<path d="M139.002,420.586h-66.65c-9.274,0-16.793,7.519-16.793,16.793c0,9.274,7.519,16.793,16.793,16.793h66.65
			c9.274,0,16.793-7.519,16.793-16.793C155.795,428.105,148.276,420.586,139.002,420.586z"/>
	</g>
</g>
<g>
	<g>
		<path d="M509.799,114.153l-54.661-95.942c-2.987-5.243-8.558-8.481-14.591-8.481H257.794C248.519,9.731,241,17.25,241,26.524
			v95.942c0,9.274,7.519,16.793,16.793,16.793h62.082v315.692c0,26.093,21.228,47.32,47.32,47.32
			c26.093,0,47.321-21.228,47.321-47.32V139.259h80.69c5.983,0,11.514-3.183,14.52-8.355
			C512.732,125.732,512.76,119.351,509.799,114.153z M380.93,454.951c0,7.573-6.161,13.734-13.734,13.734
			c-7.573,0-13.734-6.161-13.734-13.734V139.259h27.467V454.951z M397.723,105.673h-61.054h-62.082V43.318h156.199l35.526,62.355
			H397.723z"/>
	</g>
</g>
<g>
</g>
<g>
</g>
<g>
</g>
<g>
</g>
<g>
</g>
<g>
</g>
<g>
</g>
<g>
</g>
<g>
</g>
<g>
</g>
<g>
</g>
<g>
</g>
<g>
</g>
<g>
</g>
<g>
</g>
</svg>
